<svg width="256" height="256" viewBox="0 0 256 256" fill="none" xmlns="http://www.w3.org/2000/svg" role="img" aria-labelledby="title desc" shape-rendering="crispEdges">
  <title id="title">codexgo pixel logo</title>
  <desc id="desc">A cute pixel-style terminal companion logo for codexgo.</desc>
  <rect width="256" height="256" rx="44" fill="#F7F3E8"/>
  <rect x="24" y="24" width="208" height="208" rx="30" fill="#DFF7EF"/>
  <rect x="36" y="36" width="184" height="184" rx="18" fill="#0F1F1A"/>

  <g transform="translate(40 32)">
    <rect x="56" y="0" width="64" height="16" fill="#34D399"/>
    <rect x="40" y="16" width="96" height="16" fill="#34D399"/>
    <rect x="24" y="32" width="128" height="16" fill="#34D399"/>
    <rect x="16" y="48" width="144" height="16" fill="#34D399"/>
    <rect x="16" y="64" width="144" height="16" fill="#6EE7B7"/>
    <rect x="0" y="80" width="176" height="64" fill="#6EE7B7"/>
    <rect x="16" y="144" width="144" height="16" fill="#34D399"/>
    <rect x="32" y="160" width="112" height="16" fill="#059669"/>

    <rect x="16" y="96" width="24" height="16" fill="#0F1F1A"/>
    <rect x="136" y="96" width="24" height="16" fill="#0F1F1A"/>
    <rect x="48" y="80" width="24" height="24" fill="#ECFDF5"/>
    <rect x="104" y="80" width="24" height="24" fill="#ECFDF5"/>
    <rect x="56" y="88" width="8" height="8" fill="#0F1F1A"/>
    <rect x="112" y="88" width="8" height="8" fill="#0F1F1A"/>
    <rect x="64" y="120" width="48" height="8" fill="#0F1F1A"/>
    <rect x="72" y="128" width="32" height="8" fill="#0F1F1A"/>
    <rect x="32" y="112" width="16" height="8" fill="#F9A8D4"/>
    <rect x="128" y="112" width="16" height="8" fill="#F9A8D4"/>

    <rect x="48" y="176" width="80" height="16" fill="#0F1F1A"/>
    <rect x="56" y="180" width="16" height="8" fill="#A7F3D0"/>
    <rect x="80" y="180" width="40" height="8" fill="#FDE68A"/>
  </g>

  <rect x="52" y="204" width="152" height="16" fill="#34D399"/>
  <rect x="68" y="220" width="120" height="8" fill="#059669"/>
</svg>
